<?xml version="1.0" encoding="utf-8"?>
<!-- Generator: Adobe Illustrator 19.0.0, SVG Export Plug-In . SVG Version: 6.00 Build 0)  -->
<svg version="1.1" id="Layer_1" xmlns="http://www.w3.org/2000/svg" xmlns:xlink="http://www.w3.org/1999/xlink" x="0px" y="0px"
	 viewBox="0 0 360 298" style="enable-background:new 0 0 360 298;" xml:space="preserve">
<style type="text/css">
	.st0{fill-rule:evenodd;clip-rule:evenodd;fill:none;}
	.st1{fill-rule:evenodd;clip-rule:evenodd;fill:#B06924;}
	.st2{fill-rule:evenodd;clip-rule:evenodd;fill:#774204;}
	.st3{fill-rule:evenodd;clip-rule:evenodd;fill:#5A7F28;}
</style>
<g id="Layer_8">
	<rect class="st0" width="360" height="298"/>
</g>
<g id="Layer_7">
	<path class="st1" d="M163.4,40c0-0.6,0.2-1,0.6-1.4c0.4-0.4,0.9-0.6,1.4-0.6h15.3c0.6,0,1,0.2,1.4,0.6c0.4,0.4,0.6,0.9,0.6,1.4
		v113.5c0,0.6-0.2,1-0.6,1.4c-0.4,0.4-0.9,0.6-1.4,0.6h-17.6c-1.1,0-1.8-0.6-2.2-1.7l-25-71.2c-0.1-0.3-0.3-0.5-0.6-0.4
		c-0.3,0.1-0.4,0.3-0.4,0.6l0.2,70.7c0,0.6-0.2,1-0.6,1.4c-0.4,0.4-0.9,0.6-1.4,0.6h-23.7c-0.6,0-1-0.2-1.4-0.6
		c-0.4-0.4-0.6-0.9-0.6-1.4v-4.7h16c0.7,0,1.3-0.6,1.3-1.3l0,0c0-0.7-0.6-1.3-1.3-1.3h-16v-3h11c0.7,0,1.3-0.6,1.3-1.3l0,0
		c0-0.7-0.6-1.3-1.3-1.3h-11V137h11c0.7,0,1.3-0.6,1.3-1.3l0,0c0-0.7-0.6-1.3-1.3-1.3h-11v-2.8h16c0.7,0,1.3-0.6,1.3-1.3l0,0
		c0-0.7-0.6-1.3-1.3-1.3h-16v-3h11c0.7,0,1.3-0.6,1.3-1.3l0,0c0-0.7-0.6-1.3-1.3-1.3h-11V120h11c0.7,0,1.3-0.6,1.3-1.3l0,0
		c0-0.7-0.6-1.3-1.3-1.3h-11v-2.8h16c0.7,0,1.3-0.6,1.3-1.3l0,0c0-0.7-0.6-1.3-1.3-1.3h-16v-3h11c0.7,0,1.3-0.6,1.3-1.3l0,0
		c0-0.7-0.6-1.3-1.3-1.3h-11v-3.5h11c0.7,0,1.3-0.6,1.3-1.3l0,0c0-0.7-0.6-1.3-1.3-1.3h-11v-2.8h16c0.7,0,1.3-0.6,1.3-1.3l0,0
		c0-0.7-0.6-1.3-1.3-1.3h-16v-3h11c0.7,0,1.3-0.6,1.3-1.3l0,0c0-0.7-0.6-1.3-1.3-1.3h-11v-3.5h11c0.7,0,1.3-0.6,1.3-1.3l0,0
		c0-0.7-0.6-1.3-1.3-1.3h-11v-2.6h16c0.7,0,1.3-0.6,1.3-1.3l0,0c0-0.7-0.6-1.3-1.3-1.3h-16v-3h11c0.7,0,1.3-0.6,1.3-1.3l0,0
		c0-0.7-0.6-1.3-1.3-1.3h-11V69h11c0.7,0,1.3-0.6,1.3-1.3l0,0c0-0.7-0.6-1.3-1.3-1.3h-11v-3.1h16c0.7,0,1.3-0.6,1.3-1.3l0,0
		c0-0.7-0.6-1.3-1.3-1.3h-16v-3h11c0.7,0,1.3-0.6,1.3-1.3l0,0c0-0.7-0.6-1.3-1.3-1.3h-11v-3.5h11c0.7,0,1.3-0.6,1.3-1.3l0,0
		c0-0.7-0.6-1.3-1.3-1.3h-11v-3h16c0.7,0,1.3-0.6,1.3-1.3l0,0c0-0.7-0.6-1.3-1.3-1.3h-16V40c0-0.6,0.2-1,0.6-1.4
		c0.4-0.4,0.9-0.6,1.4-0.6h25.7c1.1,0,1.8,0.6,2.2,1.7l25.2,70.7c0.1,0.3,0.3,0.5,0.6,0.4c0.3-0.1,0.4-0.3,0.4-0.6V40L163.4,40z
		 M225.7,156.8c-9.3,0-16.8-2.8-22.5-8.3c-5.7-5.5-8.6-12.9-8.6-22.1V114c0-0.6,0.2-1,0.6-1.4c0.4-0.4,0.9-0.6,1.4-0.6h15.4
		c0.6,0,1,0.2,1.4,0.6c0.4,0.4,0.6,0.9,0.6,1.4v12.8c0,3.9,1.1,7.1,3.2,9.6c2.1,2.5,4.9,3.7,8.4,3.7c3.5,0,6.3-1.2,8.5-3.7
		c2.2-2.5,3.3-5.7,3.3-9.6V40c0-0.6,0.2-1,0.6-1.4c0.4-0.4,0.9-0.6,1.4-0.6h15.4c0.6,0,1,0.2,1.4,0.6c0.4,0.4,0.6,0.9,0.6,1.4v86.5
		c0,9.2-2.9,16.5-8.6,22.1C242.5,154,235,156.8,225.7,156.8z"/>
</g>
<g id="Layer_6">
	<path class="st2" d="M237.5,60.9c3.3,0,12.8,0.4,19.5,3.8V53.5l-14.4-0.8c0,0-3.1-1.6-5.1,0.1V60.9z"/>
</g>
<g id="Layer_5">
	<path class="st1" d="M220.6,34.7h18.3c17.6,0,33.4,5.3,45.7,22.6c5,6.9,5.8,12.7,5.8,12.7c-20.8-16.5-50.6-9.8-69.9-10.6
		c-1.2-0.1-2.2-1.2-2.2-2.7v-2.6h-3.6c-0.6,1.7-2.2,2.9-4.1,2.9h-7.4c-2.4,0-4.3-1.9-4.3-4.3V41.3c0-2.4,1.9-4.3,4.3-4.3h7.4
		c1.9,0,3.5,1.2,4.1,2.9h3.6v-2.5C218.4,35.9,219.4,34.7,220.6,34.7z"/>
</g>
<g id="Layer_4">
	<g>
		<path class="st3" d="M60.6,169.6c0.2,0,0.3,0.1,0.4,0.2c0.1,0.1,0.2,0.2,0.2,0.4v3.5c0,0.2-0.1,0.3-0.2,0.4
			c-0.1,0.1-0.2,0.2-0.4,0.2h-8.4c-0.2,0-0.2,0.1-0.2,0.2V201c0,0.2-0.1,0.3-0.2,0.4c-0.1,0.1-0.2,0.2-0.4,0.2h-4.2
			c-0.2,0-0.3-0.1-0.4-0.2c-0.1-0.1-0.2-0.2-0.2-0.4v-26.6c0-0.2-0.1-0.2-0.2-0.2h-8.1c-0.2,0-0.3-0.1-0.4-0.2
			c-0.1-0.1-0.2-0.2-0.2-0.4v-3.5c0-0.2,0.1-0.3,0.2-0.4c0.1-0.1,0.2-0.2,0.4-0.2H60.6z"/>
		<path class="st3" d="M79.7,181.8c0,0.1,0,0.2,0,0.3c0.5,0.8,0.9,1.6,1.2,2.5c0.5,1.5,0.8,3.2,0.8,5.2c0,1.9-0.3,3.7-0.8,5.2
			c-0.7,2.2-1.9,3.9-3.6,5.1c-1.7,1.2-3.7,1.8-6.1,1.8c-1.7,0-3.3-0.3-4.7-1c-0.1,0-0.2,0-0.3,0.1l-1.6,2.3
			c-0.1,0.2-0.2,0.2-0.4,0.2c-0.1,0-0.2,0-0.4-0.1l-2.9-2.4c-0.2-0.2-0.2-0.3-0.2-0.4c0-0.1,0-0.2,0.1-0.4l1.7-2.5
			c0-0.1,0-0.2,0-0.3c-0.4-0.7-0.8-1.5-1.1-2.5c-0.5-1.5-0.8-3.2-0.8-5.2c0-1.9,0.2-3.7,0.7-5.2c0.7-2.1,1.9-3.8,3.7-5
			c1.7-1.2,3.8-1.8,6.3-1.8c1.7,0,3.1,0.3,4.4,0.9c0.1,0,0.2,0,0.3-0.1l1.6-2.4c0.1-0.2,0.2-0.2,0.4-0.2c0.1,0,0.2,0,0.4,0.1
			l2.9,2.3c0.2,0.2,0.2,0.3,0.2,0.4c0,0.1,0,0.2-0.1,0.4L79.7,181.8L79.7,181.8z M66.1,189.9c0,0.9,0.1,1.7,0.2,2.3
			c0,0.1,0,0.2,0.1,0.2c0.1,0,0.1,0,0.2-0.1L73,183c0.1-0.2,0.1-0.3-0.1-0.3c-0.5-0.2-1.1-0.3-1.7-0.3c-1.2,0-2.1,0.3-3,0.9
			c-0.8,0.6-1.4,1.5-1.7,2.7C66.2,187.1,66.1,188.4,66.1,189.9L66.1,189.9z M76,193.7c0.3-1,0.5-2.3,0.5-3.8c0-1-0.1-1.9-0.2-2.6
			c0-0.1-0.1-0.1-0.1-0.1c-0.1,0-0.1,0-0.2,0.1l-6.6,9.5c-0.1,0.2-0.1,0.3,0.1,0.3c0.5,0.2,1.1,0.3,1.9,0.3c1.1,0,2.1-0.3,2.9-1
			C75,195.8,75.6,194.9,76,193.7z"/>
		<path class="st3" d="M111.2,177.9c2.3,0,4.2,0.7,5.5,2.1c1.3,1.4,2,3.4,2,5.9V201c0,0.2-0.1,0.3-0.2,0.4c-0.1,0.1-0.2,0.2-0.4,0.2
			H114c-0.2,0-0.3-0.1-0.4-0.2c-0.1-0.1-0.2-0.2-0.2-0.4v-14c0-1.4-0.4-2.5-1.1-3.3c-0.7-0.8-1.7-1.2-3-1.2c-1.2,0-2.3,0.4-3.1,1.2
			c-0.8,0.8-1.2,1.9-1.2,3.3V201c0,0.2-0.1,0.3-0.2,0.4c-0.1,0.1-0.2,0.2-0.4,0.2h-4.2c-0.2,0-0.3-0.1-0.4-0.2
			c-0.1-0.1-0.2-0.2-0.2-0.4v-14c0-1.4-0.4-2.5-1.1-3.3c-0.8-0.8-1.8-1.2-3-1.2c-1.2,0-2.1,0.3-2.9,1c-0.7,0.7-1.2,1.6-1.3,2.7V201
			c0,0.2-0.1,0.3-0.2,0.4c-0.1,0.1-0.2,0.2-0.4,0.2h-4.2c-0.2,0-0.3-0.1-0.4-0.2c-0.1-0.1-0.2-0.2-0.2-0.4v-22.2
			c0-0.2,0.1-0.3,0.2-0.4c0.1-0.1,0.2-0.2,0.4-0.2H91c0.2,0,0.3,0.1,0.4,0.2c0.1,0.1,0.2,0.2,0.2,0.4v1.5c0,0.1,0,0.2,0.1,0.2
			c0.1,0,0.1,0,0.2-0.1c0.7-0.9,1.5-1.5,2.5-1.9c1-0.4,2.1-0.6,3.3-0.6c1.5,0,2.8,0.3,3.9,0.9c1.1,0.6,2,1.5,2.6,2.6
			c0.1,0.1,0.2,0.1,0.3,0c0.7-1.2,1.6-2.1,2.8-2.7C108.4,178.2,109.7,177.9,111.2,177.9z"/>
		<path class="st3" d="M134.9,178c1,0,1.8,0.2,2.6,0.6c0.2,0.1,0.3,0.4,0.3,0.7l-0.8,4.1c0,0.4-0.2,0.5-0.6,0.3
			c-0.5-0.2-1-0.2-1.6-0.2c-0.4,0-0.7,0-0.9,0c-1.3,0.1-2.3,0.5-3.2,1.3c-0.9,0.8-1.3,1.9-1.3,3.3V201c0,0.2-0.1,0.3-0.2,0.4
			c-0.1,0.1-0.2,0.2-0.4,0.2h-4.2c-0.2,0-0.3-0.1-0.4-0.2c-0.1-0.1-0.2-0.2-0.2-0.4v-22.2c0-0.2,0.1-0.3,0.2-0.4
			c0.1-0.1,0.2-0.2,0.4-0.2h4.2c0.2,0,0.3,0.1,0.4,0.2c0.1,0.1,0.2,0.2,0.2,0.4v2.1c0,0.1,0,0.2,0.1,0.2c0,0,0.1,0,0.2-0.1
			C130.9,178.9,132.7,178,134.9,178z"/>
		<path class="st3" d="M160.5,187.3c0.1,0.8,0.2,1.6,0.2,2.6l0,1.4c0,0.4-0.2,0.5-0.5,0.5h-14.3c-0.2,0-0.2,0.1-0.2,0.2
			c0.1,1,0.2,1.7,0.4,2.1c0.7,2.2,2.5,3.3,5.3,3.3c2.1,0,3.7-0.9,4.9-2.6c0.1-0.2,0.3-0.3,0.5-0.3c0.1,0,0.2,0,0.3,0.1l2.8,2.3
			c0.3,0.2,0.3,0.5,0.1,0.7c-0.9,1.3-2.2,2.4-3.8,3.1c-1.6,0.7-3.3,1.1-5.2,1.1c-2.4,0-4.4-0.5-6.1-1.6c-1.7-1.1-2.9-2.6-3.6-4.5
			c-0.7-1.6-1.1-3.9-1.1-6.8c0-1.8,0.2-3.2,0.5-4.3c0.6-2.1,1.8-3.8,3.4-5c1.7-1.2,3.7-1.8,6.1-1.8
			C156.3,177.9,159.7,181,160.5,187.3L160.5,187.3z M150.3,182.4c-1.1,0-2.1,0.3-2.8,0.8c-0.7,0.6-1.3,1.3-1.6,2.4
			c-0.2,0.5-0.3,1.2-0.4,2c-0.1,0.2,0,0.2,0.2,0.2h9.3c0.2,0,0.2-0.1,0.2-0.2c-0.1-0.8-0.2-1.3-0.3-1.7c-0.3-1.1-0.8-1.9-1.6-2.6
			C152.6,182.7,151.6,182.4,150.3,182.4z"/>
		<path class="st3" d="M176.4,178c1,0,1.8,0.2,2.6,0.6c0.2,0.1,0.3,0.4,0.3,0.7l-0.8,4.1c0,0.4-0.2,0.5-0.6,0.3
			c-0.5-0.2-1-0.2-1.6-0.2c-0.4,0-0.7,0-0.9,0c-1.3,0.1-2.3,0.5-3.2,1.3c-0.9,0.8-1.3,1.9-1.3,3.3V201c0,0.2-0.1,0.3-0.2,0.4
			c-0.1,0.1-0.2,0.2-0.4,0.2H166c-0.2,0-0.3-0.1-0.4-0.2c-0.1-0.1-0.2-0.2-0.2-0.4v-22.2c0-0.2,0.1-0.3,0.2-0.4
			c0.1-0.1,0.2-0.2,0.4-0.2h4.2c0.2,0,0.3,0.1,0.4,0.2c0.1,0.1,0.2,0.2,0.2,0.4v2.1c0,0.1,0,0.2,0.1,0.2c0,0,0.1,0,0.2-0.1
			C172.3,178.9,174.1,178,176.4,178z"/>
		<path class="st3" d="M207.6,177.9c2.3,0,4.2,0.7,5.5,2.1c1.3,1.4,2,3.4,2,5.9V201c0,0.2-0.1,0.3-0.2,0.4c-0.1,0.1-0.2,0.2-0.4,0.2
			h-4.2c-0.2,0-0.3-0.1-0.4-0.2c-0.1-0.1-0.2-0.2-0.2-0.4v-14c0-1.4-0.4-2.5-1.1-3.3c-0.7-0.8-1.7-1.2-3-1.2c-1.2,0-2.3,0.4-3.1,1.2
			c-0.8,0.8-1.2,1.9-1.2,3.3V201c0,0.2-0.1,0.3-0.2,0.4c-0.1,0.1-0.2,0.2-0.4,0.2h-4.2c-0.2,0-0.3-0.1-0.4-0.2
			c-0.1-0.1-0.2-0.2-0.2-0.4v-14c0-1.4-0.4-2.5-1.1-3.3c-0.8-0.8-1.8-1.2-3-1.2c-1.2,0-2.1,0.3-2.9,1c-0.7,0.7-1.2,1.6-1.3,2.7V201
			c0,0.2-0.1,0.3-0.2,0.4c-0.1,0.1-0.2,0.2-0.4,0.2h-4.2c-0.2,0-0.3-0.1-0.4-0.2c-0.1-0.1-0.2-0.2-0.2-0.4v-22.2
			c0-0.2,0.1-0.3,0.2-0.4c0.1-0.1,0.2-0.2,0.4-0.2h4.2c0.2,0,0.3,0.1,0.4,0.2c0.1,0.1,0.2,0.2,0.2,0.4v1.5c0,0.1,0,0.2,0.1,0.2
			c0.1,0,0.1,0,0.2-0.1c0.7-0.9,1.5-1.5,2.5-1.9c1-0.4,2.1-0.6,3.3-0.6c1.5,0,2.8,0.3,3.9,0.9c1.1,0.6,2,1.5,2.6,2.6
			c0.1,0.1,0.2,0.1,0.3,0c0.7-1.2,1.6-2.1,2.8-2.7C204.9,178.2,206.2,177.9,207.6,177.9z"/>
		<path class="st3" d="M240,187.3c0.1,0.8,0.2,1.6,0.2,2.6l0,1.4c0,0.4-0.2,0.5-0.5,0.5h-14.3c-0.2,0-0.2,0.1-0.2,0.2
			c0.1,1,0.2,1.7,0.4,2.1c0.7,2.2,2.5,3.3,5.3,3.3c2.1,0,3.7-0.9,4.9-2.6c0.1-0.2,0.3-0.3,0.5-0.3c0.1,0,0.2,0,0.3,0.1l2.8,2.3
			c0.3,0.2,0.3,0.5,0.1,0.7c-0.9,1.3-2.2,2.4-3.8,3.1c-1.6,0.7-3.3,1.1-5.2,1.1c-2.4,0-4.4-0.5-6.1-1.6c-1.7-1.1-2.9-2.6-3.6-4.5
			c-0.7-1.6-1.1-3.9-1.1-6.8c0-1.8,0.2-3.2,0.5-4.3c0.6-2.1,1.8-3.8,3.4-5c1.7-1.2,3.7-1.8,6.1-1.8C235.9,177.9,239.3,181,240,187.3
			L240,187.3z M229.9,182.4c-1.1,0-2.1,0.3-2.8,0.8c-0.7,0.6-1.3,1.3-1.6,2.4c-0.2,0.5-0.3,1.2-0.4,2c-0.1,0.2,0,0.2,0.2,0.2h9.3
			c0.2,0,0.2-0.1,0.2-0.2c-0.1-0.8-0.2-1.3-0.3-1.7c-0.3-1.1-0.8-1.9-1.6-2.6C232.1,182.7,231.1,182.4,229.9,182.4z"/>
		<path class="st3" d="M253.3,201.8c-1.9,0-3.6-0.3-5-0.8c-1.4-0.6-2.6-1.3-3.4-2.3c-0.8-1-1.2-2.1-1.2-3.3v-0.4
			c0-0.2,0.1-0.3,0.2-0.4c0.1-0.1,0.2-0.2,0.4-0.2h4c0.2,0,0.3,0.1,0.4,0.2c0.1,0.1,0.2,0.2,0.2,0.4v0.1c0,0.8,0.4,1.4,1.3,2
			c0.8,0.6,1.9,0.8,3.2,0.8c1.2,0,2.2-0.3,3-0.8c0.8-0.5,1.1-1.1,1.1-1.9c0-0.7-0.3-1.2-0.9-1.6c-0.6-0.3-1.6-0.7-3-1.1l-1.7-0.5
			c-1.6-0.5-2.9-0.9-3.9-1.5c-1.1-0.5-2-1.2-2.7-2.1c-0.7-0.9-1.1-2-1.1-3.4c0-2.1,0.8-3.8,2.5-5.1c1.7-1.3,3.9-1.9,6.6-1.9
			c1.9,0,3.5,0.3,4.9,0.9c1.4,0.6,2.5,1.4,3.2,2.5c0.8,1.1,1.1,2.2,1.1,3.6c0,0.2-0.1,0.3-0.2,0.4c-0.1,0.1-0.2,0.2-0.4,0.2H258
			c-0.2,0-0.3-0.1-0.4-0.2c-0.1-0.1-0.2-0.2-0.2-0.4c0-0.8-0.4-1.5-1.2-2c-0.8-0.5-1.8-0.8-3.2-0.8c-1.2,0-2.2,0.2-2.9,0.7
			c-0.7,0.4-1.1,1.1-1.1,1.8c0,0.7,0.4,1.3,1.1,1.7c0.7,0.4,1.9,0.8,3.6,1.3l1,0.3c1.6,0.5,3,1,4.1,1.5c1.1,0.5,2,1.2,2.8,2.1
			c0.8,0.9,1.1,2.1,1.1,3.5c0,2.2-0.9,3.9-2.6,5.1C258.4,201.2,256.2,201.8,253.3,201.8z"/>
		<path class="st3" d="M279.5,182c0,0.2-0.1,0.3-0.2,0.4c-0.1,0.1-0.2,0.2-0.4,0.2h-4.7c-0.2,0-0.2,0.1-0.2,0.2v11
			c0,1.2,0.3,2,0.8,2.5s1.3,0.8,2.4,0.8h1.4c0.2,0,0.3,0.1,0.4,0.2c0.1,0.1,0.2,0.2,0.2,0.4v3.4c0,0.3-0.2,0.5-0.5,0.6l-2.4,0
			c-2.4,0-4.2-0.4-5.4-1.2c-1.2-0.8-1.8-2.4-1.8-4.7v-13c0-0.2-0.1-0.2-0.2-0.2h-2.6c-0.2,0-0.3-0.1-0.4-0.2
			c-0.1-0.1-0.2-0.2-0.2-0.4v-3.2c0-0.2,0.1-0.3,0.2-0.4c0.1-0.1,0.2-0.2,0.4-0.2h2.6c0.2,0,0.2-0.1,0.2-0.2v-5.3
			c0-0.2,0.1-0.3,0.2-0.4c0.1-0.1,0.2-0.2,0.4-0.2h4c0.2,0,0.3,0.1,0.4,0.2c0.1,0.1,0.2,0.2,0.2,0.4v5.3c0,0.2,0.1,0.2,0.2,0.2h4.7
			c0.2,0,0.3,0.1,0.4,0.2c0.1,0.1,0.2,0.2,0.2,0.4V182z"/>
		<path class="st3" d="M303.4,187.3c0.1,0.8,0.2,1.6,0.2,2.6l0,1.4c0,0.4-0.2,0.5-0.5,0.5h-14.3c-0.2,0-0.2,0.1-0.2,0.2
			c0.1,1,0.2,1.7,0.4,2.1c0.7,2.2,2.5,3.3,5.3,3.3c2.1,0,3.7-0.9,4.9-2.6c0.1-0.2,0.3-0.3,0.5-0.3c0.1,0,0.2,0,0.3,0.1l2.8,2.3
			c0.3,0.2,0.3,0.5,0.1,0.7c-0.9,1.3-2.2,2.4-3.8,3.1c-1.6,0.7-3.3,1.1-5.2,1.1c-2.4,0-4.4-0.5-6.1-1.6c-1.7-1.1-2.9-2.6-3.6-4.5
			c-0.7-1.6-1.1-3.9-1.1-6.8c0-1.8,0.2-3.2,0.5-4.3c0.6-2.1,1.8-3.8,3.4-5c1.7-1.2,3.7-1.8,6.1-1.8
			C299.3,177.9,302.7,181,303.4,187.3L303.4,187.3z M293.3,182.4c-1.1,0-2.1,0.3-2.8,0.8c-0.7,0.6-1.3,1.3-1.6,2.4
			c-0.2,0.5-0.3,1.2-0.4,2c-0.1,0.2,0,0.2,0.2,0.2h9.3c0.2,0,0.2-0.1,0.2-0.2c-0.1-0.8-0.2-1.3-0.3-1.7c-0.3-1.1-0.8-1.9-1.6-2.6
			C295.5,182.7,294.5,182.4,293.3,182.4z"/>
		<path class="st3" d="M319.3,178c1,0,1.8,0.2,2.6,0.6c0.2,0.1,0.3,0.4,0.3,0.7l-0.8,4.1c0,0.4-0.2,0.5-0.6,0.3
			c-0.5-0.2-1-0.2-1.6-0.2c-0.4,0-0.7,0-0.9,0c-1.3,0.1-2.3,0.5-3.2,1.3c-0.9,0.8-1.3,1.9-1.3,3.3V201c0,0.2-0.1,0.3-0.2,0.4
			c-0.1,0.1-0.2,0.2-0.4,0.2H309c-0.2,0-0.3-0.1-0.4-0.2c-0.1-0.1-0.2-0.2-0.2-0.4v-22.2c0-0.2,0.1-0.3,0.2-0.4
			c0.1-0.1,0.2-0.2,0.4-0.2h4.2c0.2,0,0.3,0.1,0.4,0.2c0.1,0.1,0.2,0.2,0.2,0.4v2.1c0,0.1,0,0.2,0.1,0.2c0,0,0.1,0,0.2-0.1
			C315.3,178.9,317,178,319.3,178z"/>
	</g>
</g>
<g id="Layer_3">
	<g>
		<path class="st3" d="M88.7,213.2c0-0.1,0-0.2,0.1-0.3c0.1-0.1,0.2-0.1,0.3-0.1h3.1c0.1,0,0.2,0,0.3,0.1c0.1,0.1,0.1,0.2,0.1,0.3
			v22.6c0,0.1,0,0.2-0.1,0.3c-0.1,0.1-0.2,0.1-0.3,0.1h-3c-0.2,0-0.4-0.1-0.5-0.3l-9.6-15.8c0-0.1-0.1-0.1-0.1-0.1
			c0,0-0.1,0.1-0.1,0.2l0.1,15.6c0,0.1,0,0.2-0.1,0.3c-0.1,0.1-0.2,0.1-0.3,0.1h-3.1c-0.1,0-0.2,0-0.3-0.1s-0.1-0.2-0.1-0.3v-22.6
			c0-0.1,0-0.2,0.1-0.3c0.1-0.1,0.2-0.1,0.3-0.1h3c0.2,0,0.4,0.1,0.5,0.3l9.6,15.8c0,0.1,0.1,0.1,0.1,0.1c0,0,0.1-0.1,0.1-0.1
			L88.7,213.2z"/>
		<path class="st3" d="M99.2,216.8c-0.7,0-1.3-0.2-1.7-0.7c-0.4-0.4-0.7-1-0.7-1.7s0.2-1.3,0.7-1.7c0.4-0.4,1-0.7,1.7-0.7
			c0.7,0,1.3,0.2,1.7,0.7c0.4,0.4,0.7,1,0.7,1.7s-0.2,1.3-0.7,1.7C100.5,216.6,99.9,216.8,99.2,216.8L99.2,216.8z M97.6,236.2
			c-0.1,0-0.2,0-0.3-0.1c-0.1-0.1-0.1-0.2-0.1-0.3v-16.3c0-0.1,0-0.2,0.1-0.3c0.1-0.1,0.2-0.1,0.3-0.1h3.1c0.1,0,0.2,0,0.3,0.1
			c0.1,0.1,0.1,0.2,0.1,0.3v16.3c0,0.1,0,0.2-0.1,0.3c-0.1,0.1-0.2,0.1-0.3,0.1H97.6z"/>
		<path class="st3" d="M112.6,236.5c-1.7,0-3.2-0.4-4.4-1.3c-1.2-0.9-2.1-2.1-2.6-3.6c-0.4-1-0.5-2.3-0.5-4c0-1.6,0.2-2.9,0.5-3.9
			c0.5-1.5,1.3-2.6,2.6-3.5c1.3-0.9,2.7-1.3,4.5-1.3c1.7,0,3.2,0.4,4.5,1.3c1.3,0.9,2.1,2,2.6,3.3c0.1,0.4,0.2,0.7,0.2,1.1v0.1
			c0,0.2-0.1,0.4-0.4,0.4l-3,0.4h-0.1c-0.2,0-0.3-0.1-0.4-0.3c0-0.1,0-0.2,0-0.3c0-0.2-0.1-0.3-0.1-0.5c-0.2-0.6-0.6-1.1-1.2-1.5
			c-0.6-0.4-1.3-0.6-2.1-0.6c-0.8,0-1.6,0.2-2.2,0.7c-0.6,0.4-1,1-1.2,1.8c-0.2,0.7-0.3,1.7-0.3,3c0,1.2,0.1,2.2,0.3,3
			c0.2,0.8,0.6,1.4,1.2,1.9c0.6,0.5,1.3,0.7,2.2,0.7c0.8,0,1.6-0.2,2.2-0.7c0.6-0.4,1-1,1.2-1.8c0,0,0-0.1,0-0.2c0,0,0-0.1,0-0.1
			c0.1-0.3,0.2-0.4,0.5-0.3l3,0.5c0.1,0,0.2,0.1,0.3,0.2c0.1,0.1,0.1,0.2,0.1,0.3c-0.1,0.4-0.1,0.6-0.2,0.8
			c-0.4,1.4-1.3,2.6-2.6,3.4C115.9,236,114.4,236.5,112.6,236.5z"/>
		<path class="st3" d="M130.3,236.5c-1.8,0-3.3-0.4-4.5-1.3c-1.3-0.9-2.1-2.1-2.7-3.7c-0.4-1.2-0.6-2.5-0.6-3.8
			c0-1.4,0.2-2.7,0.5-3.8c0.5-1.6,1.4-2.8,2.7-3.6c1.3-0.9,2.8-1.3,4.6-1.3c1.7,0,3.2,0.4,4.4,1.3c1.2,0.9,2.1,2.1,2.6,3.6
			c0.4,1.1,0.6,2.3,0.6,3.8c0,1.4-0.2,2.7-0.6,3.8c-0.5,1.6-1.4,2.8-2.6,3.7C133.5,236,132,236.5,130.3,236.5L130.3,236.5z
			 M130.3,233.1c0.8,0,1.5-0.2,2.1-0.7c0.6-0.5,1-1.1,1.3-2c0.2-0.7,0.3-1.7,0.3-2.8c0-1.2-0.1-2.1-0.3-2.8c-0.2-0.8-0.7-1.5-1.3-2
			c-0.6-0.5-1.3-0.7-2.2-0.7c-0.8,0-1.5,0.2-2.1,0.7c-0.6,0.5-1,1.1-1.3,2c-0.2,0.8-0.3,1.7-0.3,2.8s0.1,2,0.3,2.8
			c0.2,0.8,0.7,1.5,1.3,2C128.7,232.9,129.5,233.1,130.3,233.1z"/>
		<path class="st3" d="M142,236.2c-0.1,0-0.2,0-0.3-0.1c-0.1-0.1-0.1-0.2-0.1-0.3v-22.6c0-0.1,0-0.2,0.1-0.3
			c0.1-0.1,0.2-0.1,0.3-0.1h3.1c0.1,0,0.2,0,0.3,0.1c0.1,0.1,0.1,0.2,0.1,0.3v22.6c0,0.1,0,0.2-0.1,0.3c-0.1,0.1-0.2,0.1-0.3,0.1
			H142z"/>
		<path class="st3" d="M156.1,218.9c1.4,0,2.6,0.2,3.7,0.7c1.1,0.5,1.9,1.2,2.5,2c0.6,0.9,0.9,1.8,0.9,2.9v11.2c0,0.1,0,0.2-0.1,0.3
			s-0.2,0.1-0.3,0.1h-3.1c-0.1,0-0.2,0-0.3-0.1c-0.1-0.1-0.1-0.2-0.1-0.3v-1.1c0-0.1,0-0.1-0.1-0.1c0,0-0.1,0-0.1,0.1
			c-1.1,1.2-2.7,1.8-4.7,1.8c-1.7,0-3-0.4-4.1-1.3c-1.1-0.8-1.6-2.1-1.6-3.8c0-1.7,0.6-3.1,1.8-4.1c1.2-1,2.9-1.5,5.1-1.5h3.6
			c0.1,0,0.2-0.1,0.2-0.2v-0.8c0-0.9-0.3-1.5-0.8-2c-0.5-0.5-1.3-0.7-2.3-0.7c-0.8,0-1.5,0.2-2.1,0.5c-0.5,0.3-0.9,0.7-1,1.3
			c-0.1,0.3-0.2,0.4-0.5,0.3l-3.2-0.4c-0.1,0-0.2-0.1-0.3-0.1c-0.1-0.1-0.1-0.1-0.1-0.2c0.2-1.4,0.9-2.5,2.2-3.3
			C152.6,219.3,154.2,218.9,156.1,218.9L156.1,218.9z M155.3,233.4c1.1,0,2-0.3,2.8-0.9c0.8-0.6,1.2-1.3,1.2-2.2v-1.6
			c0-0.1-0.1-0.2-0.2-0.2h-2.8c-1.2,0-2.1,0.2-2.8,0.7c-0.7,0.4-1,1.1-1,1.9c0,0.7,0.3,1.3,0.8,1.7
			C153.8,233.2,154.5,233.4,155.3,233.4z"/>
		<path class="st3" d="M169.1,216.8c-0.7,0-1.3-0.2-1.7-0.7c-0.4-0.4-0.7-1-0.7-1.7s0.2-1.3,0.7-1.7c0.4-0.4,1-0.7,1.7-0.7
			c0.7,0,1.3,0.2,1.7,0.7c0.4,0.4,0.7,1,0.7,1.7s-0.2,1.3-0.7,1.7C170.4,216.6,169.8,216.8,169.1,216.8L169.1,216.8z M163.7,243
			c-0.3,0-0.4-0.1-0.4-0.4v-2.5c0-0.3,0.1-0.4,0.4-0.4c1.3,0,2.2-0.2,2.7-0.7c0.5-0.5,0.8-1.3,0.8-2.4l0-17.2c0-0.1,0-0.2,0.1-0.3
			c0.1-0.1,0.2-0.1,0.3-0.1h3.1c0.1,0,0.2,0,0.3,0.1c0.1,0.1,0.1,0.2,0.1,0.3v17.2c0,1.6-0.2,2.9-0.7,3.8c-0.5,0.9-1.2,1.6-2.3,2
			C167,242.9,165.6,243.1,163.7,243z"/>
		<path class="st3" d="M188.9,236.5c-1.6,0-3-0.3-4.3-0.9c-1.2-0.6-2.2-1.5-2.8-2.6c-0.7-1.1-1-2.4-1-3.9v-2.2c0-0.1,0-0.2,0.1-0.3
			c0.1-0.1,0.2-0.1,0.3-0.1h3.1c0.1,0,0.2,0,0.3,0.1c0.1,0.1,0.1,0.2,0.1,0.3v2.2c0,1.2,0.4,2.2,1.2,2.9c0.8,0.7,1.8,1.1,3.1,1.1
			c1.2,0,2.3-0.4,3.1-1.1c0.8-0.7,1.2-1.7,1.2-2.9v-15.9c0-0.1,0-0.2,0.1-0.3c0.1-0.1,0.2-0.1,0.3-0.1h3c0.1,0,0.2,0,0.3,0.1
			c0.1,0.1,0.1,0.2,0.1,0.3v15.9c0,1.5-0.3,2.8-1,3.9c-0.7,1.1-1.6,2-2.9,2.6C191.9,236.1,190.4,236.5,188.9,236.5z"/>
		<path class="st3" d="M215.9,225.7c0.1,0.6,0.1,1.2,0.1,1.9l0,1c0,0.3-0.1,0.4-0.4,0.4h-10.4c-0.1,0-0.2,0.1-0.2,0.2
			c0.1,0.7,0.2,1.2,0.3,1.5c0.5,1.6,1.8,2.4,3.9,2.4c1.5,0,2.7-0.6,3.6-1.9c0.1-0.1,0.2-0.2,0.3-0.2c0.1,0,0.2,0,0.2,0.1l2.1,1.7
			c0.2,0.2,0.2,0.3,0.1,0.5c-0.7,1-1.6,1.7-2.8,2.3c-1.1,0.5-2.4,0.8-3.8,0.8c-1.7,0-3.2-0.4-4.4-1.2c-1.2-0.8-2.1-1.9-2.7-3.3
			c-0.5-1.2-0.8-2.9-0.8-5c0-1.3,0.1-2.3,0.4-3.1c0.4-1.6,1.3-2.8,2.5-3.7c1.2-0.9,2.7-1.4,4.5-1.4
			C212.8,218.9,215.3,221.2,215.9,225.7L215.9,225.7z M208.5,222.2c-0.8,0-1.5,0.2-2.1,0.6c-0.5,0.4-0.9,1-1.2,1.7
			c-0.1,0.4-0.2,0.9-0.3,1.5c0,0.1,0,0.2,0.1,0.2h6.8c0.1,0,0.2-0.1,0.2-0.2c0-0.6-0.1-1-0.2-1.3c-0.2-0.8-0.6-1.4-1.2-1.9
			C210.1,222.4,209.3,222.2,208.5,222.2z"/>
		<path class="st3" d="M227.7,218.9c1.8,0,3.2,0.5,4.3,1.6c1.1,1.1,1.6,2.5,1.6,4.4v10.9c0,0.1,0,0.2-0.1,0.3s-0.2,0.1-0.3,0.1h-3.1
			c-0.1,0-0.2,0-0.3-0.1c-0.1-0.1-0.1-0.2-0.1-0.3v-10.1c0-1-0.3-1.9-0.9-2.5c-0.6-0.6-1.3-1-2.3-1c-1,0-1.7,0.3-2.3,0.9
			c-0.6,0.6-0.9,1.4-0.9,2.5v10.2c0,0.1,0,0.2-0.1,0.3c-0.1,0.1-0.2,0.1-0.3,0.1h-3.1c-0.1,0-0.2,0-0.3-0.1
			c-0.1-0.1-0.1-0.2-0.1-0.3v-16.3c0-0.1,0-0.2,0.1-0.3c0.1-0.1,0.2-0.1,0.3-0.1h3.1c0.1,0,0.2,0,0.3,0.1c0.1,0.1,0.1,0.2,0.1,0.3
			v1.1c0,0.1,0,0.1,0.1,0.1c0,0,0.1,0,0.1-0.1C224.5,219.5,225.9,218.9,227.7,218.9z"/>
		<path class="st3" d="M244,236.4c-1.4,0-2.6-0.2-3.7-0.6c-1.1-0.4-1.9-1-2.5-1.7c-0.6-0.7-0.9-1.5-0.9-2.4v-0.3
			c0-0.1,0-0.2,0.1-0.3c0.1-0.1,0.2-0.1,0.3-0.1h2.9c0.1,0,0.2,0,0.3,0.1c0.1,0.1,0.1,0.2,0.1,0.3v0.1c0,0.6,0.3,1,0.9,1.5
			c0.6,0.4,1.4,0.6,2.3,0.6c0.9,0,1.6-0.2,2.2-0.6c0.6-0.4,0.8-0.8,0.8-1.4c0-0.5-0.2-0.9-0.7-1.2c-0.5-0.3-1.2-0.5-2.2-0.8
			l-1.3-0.4c-1.1-0.3-2.1-0.7-2.9-1.1c-0.8-0.4-1.4-0.9-2-1.6c-0.5-0.7-0.8-1.5-0.8-2.5c0-1.6,0.6-2.8,1.8-3.7
			c1.2-0.9,2.8-1.4,4.8-1.4c1.4,0,2.5,0.2,3.6,0.7c1,0.4,1.8,1,2.4,1.8c0.6,0.8,0.8,1.6,0.8,2.6c0,0.1,0,0.2-0.1,0.3
			c-0.1,0.1-0.2,0.1-0.3,0.1h-2.8c-0.1,0-0.2,0-0.3-0.1c-0.1-0.1-0.1-0.2-0.1-0.3c0-0.6-0.3-1.1-0.9-1.5c-0.6-0.4-1.3-0.6-2.3-0.6
			c-0.9,0-1.6,0.2-2.1,0.5c-0.5,0.3-0.8,0.8-0.8,1.4c0,0.5,0.3,0.9,0.8,1.2c0.5,0.3,1.4,0.6,2.6,0.9l0.7,0.2c1.2,0.4,2.2,0.7,3,1.1
			c0.8,0.4,1.5,0.9,2,1.5c0.6,0.7,0.8,1.5,0.8,2.6c0,1.6-0.6,2.8-1.9,3.7C247.8,235.9,246.1,236.4,244,236.4z"/>
		<path class="st3" d="M268.5,225.7c0.1,0.6,0.1,1.2,0.1,1.9l0,1c0,0.3-0.1,0.4-0.4,0.4h-10.4c-0.1,0-0.2,0.1-0.2,0.2
			c0.1,0.7,0.2,1.2,0.3,1.5c0.5,1.6,1.8,2.4,3.9,2.4c1.5,0,2.7-0.6,3.6-1.9c0.1-0.1,0.2-0.2,0.3-0.2c0.1,0,0.2,0,0.2,0.1l2.1,1.7
			c0.2,0.2,0.2,0.3,0.1,0.5c-0.7,1-1.6,1.7-2.8,2.3c-1.1,0.5-2.4,0.8-3.8,0.8c-1.7,0-3.2-0.4-4.4-1.2c-1.2-0.8-2.1-1.9-2.7-3.3
			c-0.5-1.2-0.8-2.9-0.8-5c0-1.3,0.1-2.3,0.4-3.1c0.4-1.6,1.3-2.8,2.5-3.7c1.2-0.9,2.7-1.4,4.5-1.4
			C265.5,218.9,268,221.2,268.5,225.7L268.5,225.7z M261.1,222.2c-0.8,0-1.5,0.2-2.1,0.6c-0.5,0.4-0.9,1-1.2,1.7
			c-0.1,0.4-0.2,0.9-0.3,1.5c0,0.1,0,0.2,0.1,0.2h6.8c0.1,0,0.2-0.1,0.2-0.2c0-0.6-0.1-1-0.2-1.3c-0.2-0.8-0.6-1.4-1.2-1.9
			C262.7,222.4,262,222.2,261.1,222.2z"/>
		<path class="st3" d="M280.4,218.9c1.8,0,3.2,0.5,4.3,1.6c1.1,1.1,1.6,2.5,1.6,4.4v10.9c0,0.1,0,0.2-0.1,0.3
			c-0.1,0.1-0.2,0.1-0.3,0.1h-3.1c-0.1,0-0.2,0-0.3-0.1s-0.1-0.2-0.1-0.3v-10.1c0-1-0.3-1.9-0.9-2.5c-0.6-0.6-1.3-1-2.3-1
			c-1,0-1.7,0.3-2.3,0.9c-0.6,0.6-0.9,1.4-0.9,2.5v10.2c0,0.1,0,0.2-0.1,0.3c-0.1,0.1-0.2,0.1-0.3,0.1h-3.1c-0.1,0-0.2,0-0.3-0.1
			s-0.1-0.2-0.1-0.3v-16.3c0-0.1,0-0.2,0.1-0.3c0.1-0.1,0.2-0.1,0.3-0.1h3.1c0.1,0,0.2,0,0.3,0.1c0.1,0.1,0.1,0.2,0.1,0.3v1.1
			c0,0.1,0,0.1,0.1,0.1c0,0,0.1,0,0.1-0.1C277.1,219.5,278.5,218.9,280.4,218.9z"/>
	</g>
</g>
<g id="Layer_2">
	<g>
		<path class="st1" d="M133.7,255.9c0.2,0.7,0.3,1.4,0.3,2.1c0,0.7-0.1,1.4-0.3,2c-0.3,1-0.9,1.7-1.8,2.3c-0.9,0.6-1.8,0.9-3,0.9
			c-1.1,0-2.1-0.3-2.9-0.8c-0.8-0.6-1.4-1.3-1.8-2.2c-0.1-0.3-0.2-0.7-0.3-1.1v0c0-0.2,0.1-0.3,0.3-0.3h2.2c0.2,0,0.3,0.1,0.3,0.3
			c0,0.1,0.1,0.2,0.1,0.4c0.2,0.5,0.4,0.9,0.8,1.2c0.4,0.3,0.8,0.4,1.3,0.4c0.5,0,1-0.1,1.4-0.4c0.4-0.3,0.6-0.7,0.8-1.2
			c0.1-0.4,0.2-0.8,0.2-1.3c0-0.4-0.1-0.9-0.2-1.3c-0.1-0.5-0.3-0.9-0.7-1.2c-0.4-0.3-0.8-0.4-1.4-0.4c-0.5,0-1,0.1-1.4,0.4
			s-0.7,0.5-0.8,0.9c-0.1,0.2-0.2,0.2-0.3,0.2h-2.2c-0.1,0-0.1,0-0.2-0.1c-0.1-0.1-0.1-0.1-0.1-0.2v-9c0-0.1,0-0.1,0.1-0.2
			c0.1-0.1,0.1-0.1,0.2-0.1h8.9c0.1,0,0.1,0,0.2,0.1c0.1,0.1,0.1,0.1,0.1,0.2v1.7c0,0.1,0,0.1-0.1,0.2c-0.1,0.1-0.1,0.1-0.2,0.1
			h-6.4c-0.1,0-0.1,0-0.1,0.1l0,4.1c0,0.1,0,0.1,0,0.1c0,0,0.1,0,0.1,0c0.7-0.5,1.6-0.8,2.6-0.8c1.1,0,2,0.3,2.8,0.8
			C132.9,254.2,133.4,254.9,133.7,255.9z"/>
		<path class="st1" d="M144.2,263.3c-1.6,0-2.9-0.5-3.8-1.4c-0.9-0.9-1.4-2.1-1.4-3.7v-6.4c0-1.5,0.5-2.7,1.4-3.6
			c0.9-0.9,2.2-1.3,3.8-1.3c1.6,0,2.9,0.4,3.8,1.3c1,0.9,1.4,2.1,1.4,3.6v6.4c0,1.5-0.5,2.8-1.4,3.7S145.8,263.3,144.2,263.3
			L144.2,263.3z M144.2,261c0.8,0,1.4-0.2,1.9-0.7c0.5-0.5,0.7-1.1,0.7-1.9v-6.7c0-0.8-0.2-1.4-0.7-1.9c-0.5-0.5-1.1-0.7-1.9-0.7
			c-0.8,0-1.4,0.2-1.9,0.7c-0.5,0.5-0.7,1.1-0.7,1.9v6.7c0,0.8,0.2,1.4,0.7,1.9C142.8,260.8,143.4,261,144.2,261z"/>
		<path class="st1" d="M165.5,256.5c0.1,0,0.1,0,0.2,0.1c0.1,0.1,0.1,0.1,0.1,0.2v1.8c0,0.1,0,0.1-0.1,0.2c-0.1,0.1-0.1,0.1-0.2,0.1
			h-1c-0.1,0-0.1,0-0.1,0.1v3.8c0,0.1,0,0.1-0.1,0.2c-0.1,0.1-0.1,0.1-0.2,0.1H162c-0.1,0-0.1,0-0.2-0.1c-0.1-0.1-0.1-0.1-0.1-0.2
			V259c0-0.1,0-0.1-0.1-0.1h-6.9c-0.1,0-0.1,0-0.2-0.1c-0.1-0.1-0.1-0.1-0.1-0.2v-1.5c0-0.1,0-0.2,0.1-0.3l4.3-9.5
			c0.1-0.1,0.2-0.2,0.3-0.2h2.2c0.1,0,0.2,0,0.2,0.1c0,0.1,0,0.1,0,0.2l-4.1,9c0,0,0,0.1,0,0.1c0,0,0,0,0.1,0h4.1
			c0.1,0,0.1,0,0.1-0.1v-3.1c0-0.1,0-0.1,0.1-0.2c0.1-0.1,0.1-0.1,0.2-0.1h2.1c0.1,0,0.1,0,0.2,0.1c0.1,0.1,0.1,0.1,0.1,0.2v3.1
			c0,0.1,0,0.1,0.1,0.1H165.5z"/>
		<path class="st1" d="M180.3,255.2c0.4,0.8,0.6,1.7,0.6,2.8c0,0.9-0.2,1.7-0.5,2.4c-0.4,0.9-0.9,1.6-1.7,2
			c-0.8,0.5-1.7,0.7-2.8,0.7c-1.1,0-2.1-0.3-2.9-0.8c-0.8-0.5-1.4-1.3-1.7-2.2c-0.2-0.6-0.4-1.4-0.4-2.2v-7c0-0.8,0.2-1.5,0.6-2.2
			c0.4-0.6,1-1.1,1.7-1.5c0.7-0.3,1.6-0.5,2.5-0.5c0.9,0,1.8,0.2,2.5,0.5c0.7,0.3,1.3,0.8,1.7,1.4c0.4,0.6,0.6,1.3,0.6,2.1v0.5
			c0,0.1,0,0.1-0.1,0.2c-0.1,0.1-0.1,0.1-0.2,0.1h-2.1c-0.1,0-0.1,0-0.2-0.1c-0.1-0.1-0.1-0.1-0.1-0.2v-0.2c0-0.6-0.2-1.1-0.6-1.5
			c-0.4-0.4-0.9-0.6-1.5-0.6c-0.6,0-1.2,0.2-1.6,0.6c-0.4,0.4-0.6,0.9-0.6,1.6v2.5c0,0,0,0.1,0,0.1c0,0,0.1,0,0.1,0
			c0.6-0.6,1.5-0.9,2.6-0.9c0.9,0,1.7,0.2,2.4,0.6C179.4,253.9,179.9,254.5,180.3,255.2L180.3,255.2z M177.9,259.7
			c0.2-0.5,0.3-1,0.3-1.6c0-0.7-0.1-1.3-0.4-1.8c-0.4-0.7-1.1-1.1-2-1.1c-0.9,0-1.6,0.4-2,1.1c-0.2,0.5-0.3,1.1-0.3,1.8
			c0,0.6,0.1,1.1,0.3,1.5c0.4,0.8,1.1,1.3,2.1,1.3C176.9,260.9,177.5,260.5,177.9,259.7z"/>
		<path class="st1" d="M187.7,263.1c-0.2,0-0.3-0.1-0.2-0.3l5-13.2c0-0.1,0-0.1-0.1-0.1h-4.9c-0.1,0-0.1,0-0.1,0.1v1
			c0,0.1,0,0.1-0.1,0.2c-0.1,0.1-0.1,0.1-0.2,0.1h-1.6c-0.1,0-0.1,0-0.2-0.1c-0.1-0.1-0.1-0.1-0.1-0.2v-3.2c0-0.1,0-0.1,0.1-0.2
			c0.1-0.1,0.1-0.1,0.2-0.1h9.6c0.1,0,0.1,0,0.2,0.1c0.1,0.1,0.1,0.1,0.1,0.2v1.8c0,0.1,0,0.2-0.1,0.3l-5,13.3
			c0,0.2-0.2,0.2-0.3,0.2H187.7z"/>
		<path class="st1" d="M202.4,247.1c0.1,0,0.2-0.1,0.3-0.1h2.2c0.1,0,0.1,0,0.2,0.1c0.1,0.1,0.1,0.1,0.1,0.2v15.4
			c0,0.1,0,0.1-0.1,0.2c-0.1,0.1-0.1,0.1-0.2,0.1h-2.1c-0.1,0-0.1,0-0.2-0.1c-0.1-0.1-0.1-0.1-0.1-0.2v-13c0,0,0-0.1,0-0.1
			c0,0-0.1,0-0.1,0l-2.3,0.7c0,0-0.1,0-0.1,0c-0.1,0-0.1,0-0.1-0.1c0,0-0.1-0.1-0.1-0.2l-0.1-1.5c0-0.2,0.1-0.3,0.2-0.3L202.4,247.1
			z"/>
		<path class="st1" d="M220.2,255.2c0.4,0.8,0.6,1.7,0.6,2.8c0,0.9-0.2,1.7-0.5,2.4c-0.4,0.9-0.9,1.6-1.7,2
			c-0.8,0.5-1.7,0.7-2.8,0.7c-1.1,0-2.1-0.3-2.9-0.8c-0.8-0.5-1.4-1.3-1.7-2.2c-0.2-0.6-0.4-1.4-0.4-2.2v-7c0-0.8,0.2-1.5,0.6-2.2
			c0.4-0.6,1-1.1,1.7-1.5c0.7-0.3,1.6-0.5,2.5-0.5c0.9,0,1.8,0.2,2.5,0.5c0.7,0.3,1.3,0.8,1.7,1.4c0.4,0.6,0.6,1.3,0.6,2.1v0.5
			c0,0.1,0,0.1-0.1,0.2c-0.1,0.1-0.1,0.1-0.2,0.1h-2.1c-0.1,0-0.1,0-0.2-0.1c-0.1-0.1-0.1-0.1-0.1-0.2v-0.2c0-0.6-0.2-1.1-0.6-1.5
			c-0.4-0.4-0.9-0.6-1.5-0.6c-0.6,0-1.2,0.2-1.6,0.6c-0.4,0.4-0.6,0.9-0.6,1.6v2.5c0,0,0,0.1,0,0.1c0,0,0.1,0,0.1,0
			c0.6-0.6,1.5-0.9,2.6-0.9c0.9,0,1.7,0.2,2.4,0.6C219.3,253.9,219.8,254.5,220.2,255.2L220.2,255.2z M217.9,259.7
			c0.2-0.5,0.3-1,0.3-1.6c0-0.7-0.1-1.3-0.4-1.8c-0.4-0.7-1.1-1.1-2-1.1c-0.9,0-1.6,0.4-2,1.1c-0.2,0.5-0.3,1.1-0.3,1.8
			c0,0.6,0.1,1.1,0.3,1.5c0.4,0.8,1.1,1.3,2.1,1.3C216.8,260.9,217.5,260.5,217.9,259.7z"/>
		<path class="st1" d="M229.3,260.6C229.2,260.7,229.2,260.7,229.3,260.6c0,0.1,0,0.1,0,0.1h6.5c0.1,0,0.1,0,0.2,0.1
			c0.1,0.1,0.1,0.1,0.1,0.2v1.7c0,0.1,0,0.1-0.1,0.2c-0.1,0.1-0.1,0.1-0.2,0.1H226c-0.1,0-0.1,0-0.2-0.1c-0.1-0.1-0.1-0.1-0.1-0.2
			v-1.6c0-0.1,0-0.3,0.1-0.3c1.2-1.2,2.5-2.7,4-4.5l1.1-1.3c1.4-1.6,2.1-2.9,2.1-3.7c0-0.6-0.2-1.1-0.7-1.5c-0.4-0.4-1-0.6-1.7-0.6
			s-1.3,0.2-1.7,0.6c-0.4,0.4-0.7,0.9-0.7,1.6v0.6c0,0.1,0,0.1-0.1,0.2c-0.1,0.1-0.1,0.1-0.2,0.1h-2.1c-0.1,0-0.1,0-0.2-0.1
			c-0.1-0.1-0.1-0.1-0.1-0.2v-1c0-0.8,0.3-1.5,0.7-2.1c0.4-0.6,1-1.1,1.8-1.4c0.8-0.3,1.6-0.5,2.5-0.5c1,0,1.9,0.2,2.7,0.6
			c0.8,0.4,1.3,0.9,1.8,1.6c0.4,0.7,0.6,1.4,0.6,2.2c0,1.2-0.7,2.7-2,4.3c-0.7,0.9-1.9,2.3-3.6,4.1L229.3,260.6z"/>
	</g>
</g>
</svg>
